<svg xmlns="http://www.w3.org/2000/svg" viewBox="0 0 960 360" role="img" aria-labelledby="title">
  <title id="title">Office space illustration</title>
  <rect width="960" height="360" rx="32" fill="#dbeafe"/>
  <rect x="80" y="70" width="260" height="220" rx="16" fill="#ffffff"/>
  <rect x="400" y="48" width="180" height="242" rx="16" fill="#eff6ff"/>
  <rect x="630" y="92" width="250" height="198" rx="16" fill="#ffffff"/>
  <g fill="#60a5fa">
    <rect x="120" y="100" width="48" height="40" rx="6"/>
    <rect x="190" y="100" width="48" height="40" rx="6"/>
    <rect x="260" y="100" width="48" height="40" rx="6"/>
    <rect x="120" y="160" width="48" height="40" rx="6"/>
    <rect x="190" y="160" width="48" height="40" rx="6"/>
    <rect x="260" y="160" width="48" height="40" rx="6"/>
    <rect x="120" y="220" width="188" height="34" rx="6"/>
    <rect x="445" y="92" width="90" height="160" rx="10" fill="#93c5fd"/>
    <rect x="665" y="122" width="62" height="48" rx="8"/>
    <rect x="746" y="122" width="62" height="48" rx="8"/>
    <rect x="827" y="122" width="62" height="48" rx="8"/>
    <rect x="665" y="192" width="62" height="48" rx="8"/>
    <rect x="746" y="192" width="62" height="48" rx="8"/>
    <rect x="827" y="192" width="62" height="48" rx="8"/>
  </g>
</svg>